<?xml version="1.0" encoding="UTF-8" standalone="no"?>
<svg
   xmlns:dc="http://purl.org/dc/elements/1.1/"
   xmlns:cc="http://creativecommons.org/ns#"
   xmlns:rdf="http://www.w3.org/1999/02/22-rdf-syntax-ns#"
   xmlns:svg="http://www.w3.org/2000/svg"
   xmlns="http://www.w3.org/2000/svg"
   xmlns:xlink="http://www.w3.org/1999/xlink"
   xmlns:sodipodi="http://sodipodi.sourceforge.net/DTD/sodipodi-0.dtd"
   xmlns:inkscape="http://www.inkscape.org/namespaces/inkscape"
   version="1.1"
   id="svg9669"
   viewBox="0 0 537.56969 598.01217"
   height="168.77232mm"
   width="151.71411mm"
   inkscape:version="0.91 r13725"
   sodipodi:docname="anon_damaging_gb_vs_svc.svg">
  <sodipodi:namedview
     pagecolor="#ffffff"
     bordercolor="#666666"
     borderopacity="1"
     objecttolerance="10"
     gridtolerance="10"
     guidetolerance="10"
     inkscape:pageopacity="0"
     inkscape:pageshadow="2"
     inkscape:window-width="640"
     inkscape:window-height="480"
     id="namedview13204"
     showgrid="false"
     inkscape:zoom="0.3946408"
     inkscape:cx="268.78484"
     inkscape:cy="299.00609"
     inkscape:window-x="0"
     inkscape:window-y="27"
     inkscape:window-maximized="0"
     inkscape:current-layer="layer1" />
  <defs
     id="defs9671">
    <clipPath
       id="clip50">
      <path
         id="path6841"
         d="m 232.50781,25.933594 187.49219,0 0,20.957031 -187.49219,0 z m 0,0" />
    </clipPath>
    <clipPath
       id="clip49">
      <path
         id="path6838"
         d="M 232.50781,25.933594 420,25.933594 420,46 232.50781,46 Z m 0,0" />
    </clipPath>
    <clipPath
       id="clip46">
      <path
         id="path6829"
         d="m 39.53125,25.933594 187.46875,0 0,20.957031 -187.46875,0 z m 0,0" />
    </clipPath>
    <clipPath
       id="clip45">
      <path
         id="path6826"
         d="M 39.53125,25.933594 227,25.933594 227,46 39.53125,46 Z m 0,0" />
    </clipPath>
    <clipPath
       id="clip42">
      <path
         id="path6817"
         d="m 232.50781,45.886719 188,0 0,350.582031 -188,0 z m 0,0" />
    </clipPath>
    <clipPath
       id="clip41">
      <path
         id="path6814"
         d="m 410,45.886719 2,0 L 412,396 l -2,0 z m 0,0" />
    </clipPath>
    <clipPath
       id="clip40">
      <path
         id="path6811"
         d="m 368,45.886719 1,0 L 369,396 l -1,0 z m 0,0" />
    </clipPath>
    <clipPath
       id="clip39">
      <path
         id="path6808"
         d="m 325,45.886719 2,0 L 327,396 l -2,0 z m 0,0" />
    </clipPath>
    <clipPath
       id="clip38">
      <path
         id="path6805"
         d="m 283,45.886719 1,0 L 284,396 l -1,0 z m 0,0" />
    </clipPath>
    <clipPath
       id="clip37">
      <path
         id="path6802"
         d="m 240,45.886719 2,0 L 242,396 l -2,0 z m 0,0" />
    </clipPath>
    <clipPath
       id="clip36">
      <path
         id="path6799"
         d="M 232.50781,94 420,94 l 0,2 -187.49219,0 z m 0,0" />
    </clipPath>
    <clipPath
       id="clip35">
      <path
         id="path6796"
         d="M 232.50781,166 420,166 l 0,1 -187.49219,0 z m 0,0" />
    </clipPath>
    <clipPath
       id="clip34">
      <path
         id="path6793"
         d="M 232.50781,237 420,237 l 0,1 -187.49219,0 z m 0,0" />
    </clipPath>
    <clipPath
       id="clip33">
      <path
         id="path6790"
         d="M 232.50781,308 420,308 l 0,1 -187.49219,0 z m 0,0" />
    </clipPath>
    <clipPath
       id="clip32">
      <path
         id="path6787"
         d="M 232.50781,379 420,379 l 0,1 -187.49219,0 z m 0,0" />
    </clipPath>
    <clipPath
       id="clip31">
      <path
         id="path6784"
         d="m 389,45.886719 2,0 0,350.582031 -2,0 z m 0,0" />
    </clipPath>
    <clipPath
       id="clip30">
      <path
         id="path6781"
         d="m 346,45.886719 2,0 0,350.582031 -2,0 z m 0,0" />
    </clipPath>
    <clipPath
       id="clip29">
      <path
         id="path6778"
         d="m 304,45.886719 2,0 0,350.582031 -2,0 z m 0,0" />
    </clipPath>
    <clipPath
       id="clip28">
      <path
         id="path6775"
         d="m 261,45.886719 2,0 0,350.582031 -2,0 z m 0,0" />
    </clipPath>
    <clipPath
       id="clip27">
      <path
         id="path6772"
         d="m 232.50781,59 188,0 0,2 -188,0 z m 0,0" />
    </clipPath>
    <clipPath
       id="clip26">
      <path
         id="path6769"
         d="m 232.50781,130 188,0 0,2 -188,0 z m 0,0" />
    </clipPath>
    <clipPath
       id="clip25">
      <path
         id="path6766"
         d="m 232.50781,201 188,0 0,2 -188,0 z m 0,0" />
    </clipPath>
    <clipPath
       id="clip24">
      <path
         id="path6763"
         d="m 232.50781,272 188,0 0,2 -188,0 z m 0,0" />
    </clipPath>
    <clipPath
       id="clip23">
      <path
         id="path6760"
         d="m 232.50781,343 188,0 0,2 -188,0 z m 0,0" />
    </clipPath>
    <clipPath
       id="clip22">
      <path
         id="path6757"
         d="M 232.50781,45.886719 420,45.886719 420,396 232.50781,396 Z m 0,0" />
    </clipPath>
    <clipPath
       id="clip21">
      <path
         id="path6754"
         d="m 39.53125,45.886719 188,0 0,350.582031 -188,0 z m 0,0" />
    </clipPath>
    <clipPath
       id="clip20">
      <path
         id="path6751"
         d="m 217,45.886719 2,0 L 219,396 l -2,0 z m 0,0" />
    </clipPath>
    <clipPath
       id="clip19">
      <path
         id="path6748"
         d="m 175,45.886719 1,0 L 176,396 l -1,0 z m 0,0" />
    </clipPath>
    <clipPath
       id="clip18">
      <path
         id="path6745"
         d="m 132,45.886719 2,0 L 134,396 l -2,0 z m 0,0" />
    </clipPath>
    <clipPath
       id="clip17">
      <path
         id="path6742"
         d="m 90,45.886719 1,0 L 91,396 l -1,0 z m 0,0" />
    </clipPath>
    <clipPath
       id="clip16">
      <path
         id="path6739"
         d="m 47,45.886719 2,0 L 49,396 l -2,0 z m 0,0" />
    </clipPath>
    <clipPath
       id="clip15">
      <path
         id="path6736"
         d="M 39.53125,94 227,94 l 0,2 -187.46875,0 z m 0,0" />
    </clipPath>
    <clipPath
       id="clip14">
      <path
         id="path6733"
         d="M 39.53125,166 227,166 l 0,1 -187.46875,0 z m 0,0" />
    </clipPath>
    <clipPath
       id="clip13">
      <path
         id="path6730"
         d="M 39.53125,237 227,237 l 0,1 -187.46875,0 z m 0,0" />
    </clipPath>
    <clipPath
       id="clip12">
      <path
         id="path6727"
         d="M 39.53125,308 227,308 l 0,1 -187.46875,0 z m 0,0" />
    </clipPath>
    <clipPath
       id="clip11">
      <path
         id="path6724"
         d="M 39.53125,379 227,379 l 0,1 -187.46875,0 z m 0,0" />
    </clipPath>
    <clipPath
       id="clip10">
      <path
         id="path6721"
         d="m 196,45.886719 2,0 0,350.582031 -2,0 z m 0,0" />
    </clipPath>
    <clipPath
       id="clip9">
      <path
         id="path6718"
         d="m 153,45.886719 2,0 0,350.582031 -2,0 z m 0,0" />
    </clipPath>
    <clipPath
       id="clip8">
      <path
         id="path6715"
         d="m 111,45.886719 2,0 0,350.582031 -2,0 z m 0,0" />
    </clipPath>
    <clipPath
       id="clip7">
      <path
         id="path6712"
         d="m 68,45.886719 2,0 0,350.582031 -2,0 z m 0,0" />
    </clipPath>
    <clipPath
       id="clip6">
      <path
         id="path6709"
         d="m 39.53125,59 188,0 0,2 -188,0 z m 0,0" />
    </clipPath>
    <clipPath
       id="clip5">
      <path
         id="path6706"
         d="m 39.53125,130 188,0 0,2 -188,0 z m 0,0" />
    </clipPath>
    <clipPath
       id="clip4">
      <path
         id="path6703"
         d="m 39.53125,201 188,0 0,2 -188,0 z m 0,0" />
    </clipPath>
    <clipPath
       id="clip3">
      <path
         id="path6700"
         d="m 39.53125,272 188,0 0,2 -188,0 z m 0,0" />
    </clipPath>
    <clipPath
       id="clip2">
      <path
         id="path6697"
         d="m 39.53125,343 188,0 0,2 -188,0 z m 0,0" />
    </clipPath>
    <clipPath
       id="clip1">
      <path
         id="path6694"
         d="M 39.53125,45.886719 227,45.886719 227,396 39.53125,396 Z m 0,0" />
    </clipPath>
  </defs>
  <metadata
     id="metadata9674">
    <rdf:RDF>
      <cc:Work
         rdf:about="">
        <dc:format>image/svg+xml</dc:format>
        <dc:type
           rdf:resource="http://purl.org/dc/dcmitype/StillImage" />
        <dc:title />
      </cc:Work>
    </rdf:RDF>
  </metadata>
  <g
     transform="translate(408.07056,-233.35613)"
     id="layer1">
    <g
       style="clip-rule:nonzero"
       id="g6850"
       clip-path="url(#clip1)"
       transform="matrix(1.25,0,0,1.25,-395.55249,270.10574)">
      <path
         id="path6852"
         d="m 39.53125,395.46875 187,0 0,-349.582031 -187,0 z m 0,0"
         style="fill:#ffffff;fill-opacity:1;fill-rule:nonzero;stroke:none" />
    </g>
    <g
       style="clip-rule:nonzero"
       id="g6854"
       clip-path="url(#clip2)"
       transform="matrix(1.25,0,0,1.25,-395.55249,270.10574)">
      <path
         id="path6856"
         d="m 39.53125,344.03125 187,0"
         style="fill:none;stroke:#fafafa;stroke-width:1.06697798;stroke-linecap:butt;stroke-linejoin:round;stroke-miterlimit:10;stroke-opacity:1" />
    </g>
    <g
       style="clip-rule:nonzero"
       id="g6858"
       clip-path="url(#clip3)"
       transform="matrix(1.25,0,0,1.25,-395.55249,270.10574)">
      <path
         id="path6860"
         d="m 39.53125,272.9375 187,0"
         style="fill:none;stroke:#fafafa;stroke-width:1.06697798;stroke-linecap:butt;stroke-linejoin:round;stroke-miterlimit:10;stroke-opacity:1" />
    </g>
    <g
       style="clip-rule:nonzero"
       id="g6862"
       clip-path="url(#clip4)"
       transform="matrix(1.25,0,0,1.25,-395.55249,270.10574)">
      <path
         id="path6864"
         d="m 39.53125,201.84766 187,0"
         style="fill:none;stroke:#fafafa;stroke-width:1.06697798;stroke-linecap:butt;stroke-linejoin:round;stroke-miterlimit:10;stroke-opacity:1" />
    </g>
    <g
       style="clip-rule:nonzero"
       id="g6866"
       clip-path="url(#clip5)"
       transform="matrix(1.25,0,0,1.25,-395.55249,270.10574)">
      <path
         id="path6868"
         d="m 39.53125,130.75391 187,0"
         style="fill:none;stroke:#fafafa;stroke-width:1.06697798;stroke-linecap:butt;stroke-linejoin:round;stroke-miterlimit:10;stroke-opacity:1" />
    </g>
    <g
       style="clip-rule:nonzero"
       id="g6870"
       clip-path="url(#clip6)"
       transform="matrix(1.25,0,0,1.25,-395.55249,270.10574)">
      <path
         id="path6872"
         d="m 39.53125,59.660156 187,0"
         style="fill:none;stroke:#fafafa;stroke-width:1.06697798;stroke-linecap:butt;stroke-linejoin:round;stroke-miterlimit:10;stroke-opacity:1" />
    </g>
    <g
       style="clip-rule:nonzero"
       id="g6874"
       clip-path="url(#clip7)"
       transform="matrix(1.25,0,0,1.25,-395.55249,270.10574)">
      <path
         id="path6876"
         d="m 69.28125,395.46875 0,-349.582031"
         style="fill:none;stroke:#fafafa;stroke-width:1.06697798;stroke-linecap:butt;stroke-linejoin:round;stroke-miterlimit:10;stroke-opacity:1" />
    </g>
    <g
       style="clip-rule:nonzero"
       id="g6878"
       clip-path="url(#clip8)"
       transform="matrix(1.25,0,0,1.25,-395.55249,270.10574)">
      <path
         id="path6880"
         d="m 111.78125,395.46875 0,-349.582031"
         style="fill:none;stroke:#fafafa;stroke-width:1.06697798;stroke-linecap:butt;stroke-linejoin:round;stroke-miterlimit:10;stroke-opacity:1" />
    </g>
    <g
       style="clip-rule:nonzero"
       id="g6882"
       clip-path="url(#clip9)"
       transform="matrix(1.25,0,0,1.25,-395.55249,270.10574)">
      <path
         id="path6884"
         d="m 154.28125,395.46875 0,-349.582031"
         style="fill:none;stroke:#fafafa;stroke-width:1.06697798;stroke-linecap:butt;stroke-linejoin:round;stroke-miterlimit:10;stroke-opacity:1" />
    </g>
    <g
       style="clip-rule:nonzero"
       id="g6886"
       clip-path="url(#clip10)"
       transform="matrix(1.25,0,0,1.25,-395.55249,270.10574)">
      <path
         id="path6888"
         d="m 196.78125,395.46875 0,-349.582031"
         style="fill:none;stroke:#fafafa;stroke-width:1.06697798;stroke-linecap:butt;stroke-linejoin:round;stroke-miterlimit:10;stroke-opacity:1" />
    </g>
    <g
       style="clip-rule:nonzero"
       id="g6890"
       clip-path="url(#clip11)"
       transform="matrix(1.25,0,0,1.25,-395.55249,270.10574)">
      <path
         id="path6892"
         d="m 39.53125,379.57812 187,0"
         style="fill:none;stroke:#e3e3e3;stroke-width:0.42679101;stroke-linecap:butt;stroke-linejoin:round;stroke-miterlimit:10;stroke-opacity:1" />
    </g>
    <g
       style="clip-rule:nonzero"
       id="g6894"
       clip-path="url(#clip12)"
       transform="matrix(1.25,0,0,1.25,-395.55249,270.10574)">
      <path
         id="path6896"
         d="m 39.53125,308.48437 187,0"
         style="fill:none;stroke:#e3e3e3;stroke-width:0.42679101;stroke-linecap:butt;stroke-linejoin:round;stroke-miterlimit:10;stroke-opacity:1" />
    </g>
    <g
       style="clip-rule:nonzero"
       id="g6898"
       clip-path="url(#clip13)"
       transform="matrix(1.25,0,0,1.25,-395.55249,270.10574)">
      <path
         id="path6900"
         d="m 39.53125,237.39062 187,0"
         style="fill:none;stroke:#e3e3e3;stroke-width:0.42679101;stroke-linecap:butt;stroke-linejoin:round;stroke-miterlimit:10;stroke-opacity:1" />
    </g>
    <g
       style="clip-rule:nonzero"
       id="g6902"
       clip-path="url(#clip14)"
       transform="matrix(1.25,0,0,1.25,-395.55249,270.10574)">
      <path
         id="path6904"
         d="m 39.53125,166.30078 187,0"
         style="fill:none;stroke:#e3e3e3;stroke-width:0.42679101;stroke-linecap:butt;stroke-linejoin:round;stroke-miterlimit:10;stroke-opacity:1" />
    </g>
    <g
       style="clip-rule:nonzero"
       id="g6906"
       clip-path="url(#clip15)"
       transform="matrix(1.25,0,0,1.25,-395.55249,270.10574)">
      <path
         id="path6908"
         d="m 39.53125,95.207031 187,0"
         style="fill:none;stroke:#e3e3e3;stroke-width:0.42679101;stroke-linecap:butt;stroke-linejoin:round;stroke-miterlimit:10;stroke-opacity:1" />
    </g>
    <g
       style="clip-rule:nonzero"
       id="g6910"
       clip-path="url(#clip16)"
       transform="matrix(1.25,0,0,1.25,-395.55249,270.10574)">
      <path
         id="path6912"
         d="m 48.03125,395.46875 0,-349.582031"
         style="fill:none;stroke:#e3e3e3;stroke-width:0.42679101;stroke-linecap:butt;stroke-linejoin:round;stroke-miterlimit:10;stroke-opacity:1" />
    </g>
    <g
       style="clip-rule:nonzero"
       id="g6914"
       clip-path="url(#clip17)"
       transform="matrix(1.25,0,0,1.25,-395.55249,270.10574)">
      <path
         id="path6916"
         d="m 90.53125,395.46875 0,-349.582031"
         style="fill:none;stroke:#e3e3e3;stroke-width:0.42679101;stroke-linecap:butt;stroke-linejoin:round;stroke-miterlimit:10;stroke-opacity:1" />
    </g>
    <g
       style="clip-rule:nonzero"
       id="g6918"
       clip-path="url(#clip18)"
       transform="matrix(1.25,0,0,1.25,-395.55249,270.10574)">
      <path
         id="path6920"
         d="m 133.03125,395.46875 0,-349.582031"
         style="fill:none;stroke:#e3e3e3;stroke-width:0.42679101;stroke-linecap:butt;stroke-linejoin:round;stroke-miterlimit:10;stroke-opacity:1" />
    </g>
    <g
       style="clip-rule:nonzero"
       id="g6922"
       clip-path="url(#clip19)"
       transform="matrix(1.25,0,0,1.25,-395.55249,270.10574)">
      <path
         id="path6924"
         d="m 175.53125,395.46875 0,-349.582031"
         style="fill:none;stroke:#e3e3e3;stroke-width:0.42679101;stroke-linecap:butt;stroke-linejoin:round;stroke-miterlimit:10;stroke-opacity:1" />
    </g>
    <g
       style="clip-rule:nonzero"
       id="g6926"
       clip-path="url(#clip20)"
       transform="matrix(1.25,0,0,1.25,-395.55249,270.10574)">
      <path
         id="path6928"
         d="m 218.03125,395.46875 0,-349.582031"
         style="fill:none;stroke:#e3e3e3;stroke-width:0.42679101;stroke-linecap:butt;stroke-linejoin:round;stroke-miterlimit:10;stroke-opacity:1" />
    </g>
    <path
       id="path6930"
       d="m -335.51343,722.32741 0.41504,-1.09375 0.83008,-2.21679 0.41504,-1.11328 0.41992,-1.1084 0.41504,-1.1084 0.41504,-1.09375 0.41503,-1.08398 0.41504,-1.06934 0.41504,-1.04492 0.41992,-1.02051 0.41504,-0.99122 0.41504,-0.97167 0.41504,-0.92285 0.41504,-0.88379 0.41504,-0.84961 0.41992,-0.81055 0.41504,-0.75195 0.41504,-0.70801 0.41504,-0.65918 0.41504,-0.61035 0.41504,-0.54687 0.41992,-0.48829 0.41504,-0.43945 0.41504,-0.38574 0.41504,-0.32226 0.41504,-0.26368 0.41503,-0.20996 0.41993,-0.15625 0.41504,-0.0976 0.41503,-0.039 0.41504,0.005 0.41504,0.0538 0.41992,0.10737 0.41504,0.16113 0.41504,0.2002 0.41504,0.23437 0.41504,0.27833 0.41504,0.32226 0.41992,0.34667 0.41504,0.38087 0.41504,0.40527 0.41504,0.43456 0.41504,0.45899 0.41504,0.46875 0.41992,0.48829 0.41504,0.50781 0.83008,1.03515 0.83007,1.06445 0.41993,0.53224 0.41503,0.53222 0.41504,0.52734 0.41504,0.52246 0.41504,0.51758 0.41504,0.50781 0.41992,0.50294 0.41504,0.48827 0.41504,0.47852 0.41504,0.46387 0.41504,0.4541 0.41504,0.43945 0.41992,0.41993 0.41504,0.41015 0.41504,0.39551 0.41503,0.37597 0.41504,0.36133 0.41504,0.35156 0.41992,0.33204 0.41504,0.31739 0.41504,0.30272 0.41504,0.28809 0.41504,0.27832 0.41504,0.26368 0.41992,0.24414 0.41504,0.23437 0.41504,0.22461 0.41504,0.21484 0.41504,0.2002 0.41504,0.19043 0.41992,0.18066 0.41504,0.1709 0.41504,0.16114 0.41504,0.15625 0.41504,0.14647 0.41503,0.13673 0.41993,0.13183 0.83007,0.24414 0.41504,0.11225 0.41504,0.10738 0.41504,0.1025 0.41992,0.0976 0.41504,0.0976 0.83008,0.17578 0.41504,0.083 0.41504,0.0781 0.41992,0.0781 1.24512,0.21974 0.41504,0.0684 0.41504,0.0635 0.41992,0.0684 1.24512,0.19044 0.83007,0.11712 0.41993,0.0635 2.07519,0.29297 0.41992,0.0586 2.0752,0.29296 0.41992,0.0586 0.41504,0.0586 0.41504,0.0635 1.24511,0.17579 0.41993,0.0586 0.41504,0.0635 1.24511,0.17578 0.41504,0.0538 0.41992,0.0586 0.41504,0.0537 0.41504,0.0586 0.83008,0.10738 0.41504,0.0489 0.41992,0.0489 0.41504,0.0537 0.41504,0.0439 0.41504,0.0489 0.83008,0.0879 0.41992,0.044 1.66015,0.15625 0.41504,0.0341 0.41993,0.039 1.24511,0.1025 0.41504,0.0292 0.41504,0.0341 0.41992,0.0343 0.83008,0.0684 0.41504,0.0292 0.41503,0.039 0.41505,0.0341 0.41992,0.0342 0.41503,0.039 0.41505,0.0341 0.41504,0.039 0.41504,0.044 0.41504,0.039 0.41992,0.0439 0.41504,0.044 1.66015,0.19532 0.41992,0.0537 0.83008,0.10737 1.24512,0.17578 0.41992,0.0586 2.0752,0.31738 0.41992,0.0635 0.41504,0.0684 0.41504,0.0635 0.41503,0.0684 0.41504,0.0635 0.41504,0.0684 0.41992,0.0684 0.41504,0.0635 1.24513,0.20507 0.41503,0.0635 0.41993,0.0684 0.83007,0.13671 0.41504,0.0635 0.83008,0.13671 0.41992,0.0684 2.0752,0.3418 0.41991,0.0684 0.41504,0.0733 0.41505,0.0684 0.41504,0.0732 0.41504,0.0684 0.41503,0.0733 0.41993,0.0732 1.24511,0.21973 0.41504,0.0781 0.41504,0.0733 0.41992,0.0781 0.41504,0.0733 1.24512,0.23437 0.41504,0.0733 0.41991,0.0781 1.66017,0.3125 0.41503,0.0733 0.41993,0.0781 0.41504,0.0781 1.66015,0.29296 0.41992,0.0732 1.24511,0.20507 0.41505,0.0635 0.41504,0.0684 0.41991,0.0635 1.66017,0.23437 0.41503,0.0538 0.41993,0.0489 1.24511,0.14649 0.41504,0.044 0.41504,0.039 0.41992,0.039 0.83008,0.0781 0.41505,0.0341 0.83007,0.0586 0.41993,0.0293 0.41503,0.0292 1.24512,0.0732 0.41503,0.0195 0.41993,0.0195 1.66015,0.0781 0.41505,0.0146 0.41991,0.0195 2.0752,0.0976 0.41993,0.0244 0.41503,0.0195 0.41504,0.0244 1.24511,0.0879 0.41993,0.0292 0.41504,0.0341 0.41503,0.039 0.41504,0.0342 0.83009,0.0879 0.41991,0.044 0.83009,0.0976 0.83007,0.10737 0.41504,0.0586 0.41993,0.0586 0.41503,0.0586 0.41504,0.0635 1.24511,0.20508 0.41993,0.0684 1.66016,0.29297 0.41504,0.0781 0.41992,0.0732 1.24512,0.23437 0.41503,0.0732 0.41504,0.0781 0.41993,0.0781 0.41503,0.0781 0.41504,0.0732 0.41504,0.0781 0.41504,0.0732 0.41505,0.0781 0.41991,0.0732 0.41504,0.0733 0.41505,0.0684 0.41503,0.0733 0.83008,0.13673 0.41992,0.0684 0.41504,0.0684 0.41504,0.0635 0.41504,0.0684 0.83007,0.12695 0.41993,0.0635 0.41503,0.0586 0.41504,0.0635 0.83009,0.11712 0.41504,0.0635 0.41991,0.0586 1.66016,0.23437 0.41504,0.0537 0.41992,0.0586 1.24512,0.17579 0.41503,0.0635 0.41504,0.0586 0.41993,0.0586 0.41503,0.0586 0.83009,0.12696 0.41504,0.0586 0.41504,0.0635 0.41992,0.0635 1.66015,0.25391 0.41504,0.0684 0.41992,0.0635 0.41504,0.0684 0.41504,0.0635 0.41504,0.0684 0.83008,0.12696 0.41992,0.0684 0.41503,0.0635 0.41505,0.0684 1.24512,0.19044 0.41992,0.0635 0.83008,0.12695 0.41503,0.0586 0.41504,0.0635 0.41504,0.0586 0.41992,0.0586 1.66017,0.23438 0.41503,0.0538 0.41992,0.0586 0.83008,0.10738 0.41504,0.0586 0.83008,0.10738 0.41992,0.0537 2.07519,0.26855 0.41992,0.0538 1.24513,0.16113 0.41504,0.0586 0.41503,0.0538 0.41993,0.0537 0.41504,0.0586 0.41503,0.0537 1.24512,0.17579 0.41992,0.0537 0.83008,0.11713 0.41503,0.0635 0.83009,0.11712 0.41991,0.0586 0.41504,0.0635 0.41505,0.0586 0.83008,0.12695 0.41503,0.0586 0.41993,0.0635 1.66015,0.2539 0.41504,0.0684 0.41992,0.0635 0.41504,0.0635 1.66016,0.27344 0.41991,0.0684 0.83009,0.13673 1.24511,0.21972 0.41993,0.0733 0.41504,0.0732 0.41503,0.0781 0.41504,0.0733 0.83008,0.15625 0.41992,0.083 0.41504,0.0781 1.66016,0.33204 0.41993,0.0879 0.41503,0.083 1.66015,0.35156 0.41993,0.0927 0.83007,0.17577 0.41504,0.0928 0.41504,0.0879 0.41505,0.0928 0.41991,0.0879 0.41504,0.0879 0.41505,0.0928 1.24511,0.26366 0.41993,0.083 0.41503,0.0879 1.24512,0.24902 0.41503,0.0781 0.41993,0.0781 0.83007,0.15625 0.41504,0.0732 0.41505,0.0684 0.41504,0.0733 0.41991,0.0684 1.24513,0.19044 0.83007,0.11712 0.41993,0.0537 0.83007,0.10738 0.41504,0.0489 0.83007,0.0879 0.41993,0.0439 1.24512,0.11713 0.41504,0.0342 0.41504,0.0292 0.41992,0.0341 0.41504,0.0293 0.83008,0.0489 0,0.29296 -212.5,0 z m 0,0"
       style="fill:#f8756b;fill-opacity:0.30196102;fill-rule:nonzero;stroke:#000000;stroke-width:1.33372247;stroke-linecap:round;stroke-linejoin:round;stroke-miterlimit:10;stroke-opacity:1" />
    <path
       id="path6932"
       d="m -335.51343,742.90359 0.41504,-0.0489 0.41504,-0.0586 0.83008,-0.10738 0.41992,-0.0586 1.66015,-0.23438 0.41504,-0.0635 0.41992,-0.0586 2.0752,-0.31738 0.41992,-0.0635 0.41504,-0.0684 0.41504,-0.0635 0.41504,-0.0684 0.41504,-0.0635 0.41504,-0.0684 0.41992,-0.0684 0.41504,-0.0684 0.41504,-0.0635 1.24511,-0.20509 0.41993,-0.0684 0.41504,-0.0733 1.24511,-0.20507 0.41992,-0.0684 2.0752,-0.3418 0.41992,-0.0684 0.83008,-0.13673 0.41504,-0.0635 0.83008,-0.13633 0.41992,-0.0635 0.41504,-0.0684 0.41504,-0.0635 0.41504,-0.0684 0.83007,-0.12695 0.41993,-0.0635 2.07519,-0.31738 0.41992,-0.0635 0.41504,-0.0586 0.83008,-0.12695 0.83008,-0.11713 0.41992,-0.0635 0.83008,-0.11712 0.41503,-0.0635 0.83008,-0.11713 0.41992,-0.0586 0.83008,-0.11713 0.41504,-0.0635 0.83008,-0.11712 0.41992,-0.0586 0.41504,-0.0635 0.83008,-0.11712 0.41504,-0.0635 0.41504,-0.0586 0.41992,-0.0635 0.41504,-0.0586 1.66015,-0.2539 0.41993,-0.0635 0.83007,-0.13673 0.41504,-0.0635 0.83008,-0.13672 0.41992,-0.0684 0.83008,-0.14649 0.41504,-0.0684 0.41504,-0.0732 0.41504,-0.0781 0.41992,-0.0732 1.66016,-0.3125 0.41504,-0.083 0.41992,-0.083 1.24512,-0.24902 0.83007,-0.17578 0.41993,-0.0879 0.41503,-0.0879 0.41504,-0.0928 0.41504,-0.0879 0.83008,-0.18555 0.41992,-0.0927 0.41504,-0.0928 0.41504,-0.0976 0.41504,-0.0928 0.83008,-0.19531 0.41992,-0.0927 2.07519,-0.48827 0.41993,-0.0976 0.41504,-0.0976 0.41503,-0.0927 0.83008,-0.19532 0.41504,-0.0927 0.41992,-0.0928 0.41504,-0.0976 0.41504,-0.0927 0.41504,-0.0879 0.41504,-0.0928 0.41504,-0.0879 0.41992,-0.0879 0.83008,-0.17577 0.83008,-0.16601 0.41504,-0.0781 0.41992,-0.0781 0.41504,-0.0781 1.24511,-0.21974 0.41504,-0.0684 0.41993,-0.0684 0.83007,-0.12695 0.83008,-0.11712 0.41504,-0.0538 0.41992,-0.0586 0.83008,-0.0976 1.24512,-0.13184 0.41992,-0.039 0.41503,-0.0341 0.41505,-0.039 1.24512,-0.0879 0.41992,-0.0292 0.41504,-0.0244 1.24511,-0.0586 0.41504,-0.0146 0.41992,-0.0146 0.41504,-0.0146 1.66016,-0.039 0.41992,-0.005 0.83008,-0.01 0.41504,0 0.41504,-0.005 0.41504,0 0.41992,-0.005 4.15528,0 0.41503,-0.005 0.41993,0 2.07519,-0.0244 0.41992,-0.01 0.41504,-0.005 0.41504,-0.01 0.41503,-0.0146 0.41504,-0.01 0.41505,-0.0146 0.41991,-0.0146 0.41504,-0.0146 0.41505,-0.0195 0.41504,-0.0146 0.41504,-0.0195 0.41503,-0.0244 0.41993,-0.0244 0.41504,-0.0195 0.41503,-0.0293 0.41504,-0.0244 0.83008,-0.0586 0.41992,-0.0342 0.41504,-0.0293 0.41504,-0.0341 0.41503,-0.039 0.41505,-0.0341 0.41504,-0.039 0.41991,-0.039 0.41505,-0.039 0.41504,-0.044 0.41504,-0.039 0.83007,-0.0879 0.41993,-0.0489 0.41504,-0.0489 0.41503,-0.0439 0.41504,-0.0489 0.41504,-0.0537 0.41504,-0.0489 0.41992,-0.0537 0.41504,-0.0489 0.41504,-0.0538 0.41503,-0.0586 0.83009,-0.10738 0.41991,-0.0586 2.0752,-0.29298 0.41993,-0.0635 1.66015,-0.25391 0.41504,-0.0684 0.41992,-0.0635 1.24513,-0.20508 0.41503,-0.0732 0.41504,-0.0684 0.41993,-0.0733 0.41503,-0.0732 0.41504,-0.0781 0.41504,-0.0733 0.83007,-0.15625 0.41993,-0.083 0.41504,-0.0781 0.41503,-0.083 0.41504,-0.0879 0.41504,-0.083 0.41505,-0.0879 0.41991,-0.0927 0.41504,-0.0879 0.41505,-0.0928 0.41504,-0.0976 0.41503,-0.0928 0.41504,-0.1025 0.41993,-0.0976 0.83007,-0.20509 0.83008,-0.21484 0.41503,-0.11225 0.41993,-0.10737 0.41504,-0.11713 0.41503,-0.11237 0.41504,-0.11713 0.83009,-0.24414 0.41991,-0.122 0.41505,-0.12696 0.41504,-0.122 0.41504,-0.13184 0.41503,-0.12695 0.41504,-0.13183 0.41993,-0.13184 2.07518,-0.6836 0.41993,-0.1416 2.0752,-0.708 0.41992,-0.14649 2.07519,-0.70801 0.41993,-0.1416 0.83007,-0.2832 1.24513,-0.41016 0.41991,-0.13184 0.83009,-0.26366 1.24511,-0.38087 0.41992,-0.12212 1.24512,-0.35156 0.41503,-0.11225 0.41504,-0.10738 0.41993,-0.10737 0.83007,-0.20508 0.41504,-0.0976 0.83009,-0.18555 0.41991,-0.0928 1.24512,-0.24903 0.41504,-0.0781 0.41504,-0.0733 0.41992,-0.0684 0.41504,-0.0732 1.24511,-0.19044 0.41504,-0.0537 0.41993,-0.0586 0.41503,-0.0537 1.24513,-0.14649 0.41504,-0.0439 0.41992,-0.044 0.41504,-0.044 1.66015,-0.15625 0.41992,-0.0341 0.41504,-0.0341 0.41504,-0.039 1.24512,-0.1025 0.41992,-0.0343 0.83008,-0.0684 0.41504,-0.039 0.41504,-0.0341 0.41504,-0.039 0.41992,-0.0341 0.41504,-0.039 0.41504,-0.044 0.41503,-0.039 0.83008,-0.0879 0.41992,-0.044 1.24512,-0.14649 0.83008,-0.10738 0.41992,-0.0586 0.41505,-0.0537 0.41503,-0.0586 1.24512,-0.19043 0.41992,-0.0635 0.83008,-0.13672 0.41503,-0.0732 0.41504,-0.0684 0.41504,-0.0732 0.41992,-0.0733 0.41504,-0.0781 0.41504,-0.0732 1.24512,-0.23437 0.41993,-0.0781 0.41504,-0.0733 1.24511,-0.23437 0.41504,-0.0732 0.41992,-0.0781 0.83008,-0.14648 1.24512,-0.20508 0.41991,-0.0635 0.41504,-0.0635 0.83009,-0.11712 0.41504,-0.0537 0.41503,-0.0489 0.41993,-0.0489 0.83007,-0.0781 0.41504,-0.0341 0.41504,-0.0292 0.41504,-0.0244 0.41992,-0.0195 0.41504,-0.0146 0.41504,-0.01 0.83008,0 0.41504,0.01 0.41991,0.0146 0.83009,0.0489 0.41504,0.0341 0.41504,0.044 0.41503,0.0489 0.41993,0.0537 0.41504,0.0635 0.41503,0.0732 0.41504,0.0781 0.41504,0.083 0.41504,0.0928 0.41992,0.1025 0.41504,0.10738 0.41504,0.11712 0.41505,0.122 0.41503,0.13673 0.41504,0.1416 0.41993,0.14648 0.41503,0.15625 0.41504,0.16602 0.41504,0.1709 0.83007,0.37108 0.41993,0.2002 0.41504,0.2002 0.41503,0.21484 0.41504,0.21973 0.41504,0.22461 0.41505,0.23437 0.41991,0.24414 0.41504,0.24903 0.83009,0.51757 0.41503,0.27344 0.41504,0.27832 0.41993,0.27833 0.83007,0.58594 0.41504,0.29785 0.41504,0.30761 0.41503,0.3125 0.41993,0.31739 0.41504,0.32226 0.41503,0.32715 0.83009,0.66406 0.41504,0.33691 0.41991,0.34668 0.41505,0.3418 1.24511,1.05469 0.41504,0.35645 0.41993,0.36132 0.41503,0.35645 0.83008,0.72265 0.41504,0.36621 0.41503,0.36133 0.41993,0.36621 0.41504,0.36133 0.41503,0.36621 1.24513,1.08399 0.41992,0.35645 1.24512,1.06932 0,13.71094 -212.5,0 z m 0,0"
       style="fill:#00bdc2;fill-opacity:0.30196102;fill-rule:nonzero;stroke:#000000;stroke-width:1.33372247;stroke-linecap:round;stroke-linejoin:round;stroke-miterlimit:10;stroke-opacity:1" />
    <g
       style="clip-rule:nonzero"
       id="g6934"
       clip-path="url(#clip21)"
       transform="matrix(1.25,0,0,1.25,-395.55249,270.10574)">
      <path
         id="path6936"
         d="m 39.53125,395.46875 187,0 0,-349.582031 -187,0 z m 0,0"
         style="fill:none;stroke:#7d7d7d;stroke-width:1.06697798;stroke-linecap:round;stroke-linejoin:round;stroke-miterlimit:10;stroke-opacity:1" />
    </g>
    <g
       style="clip-rule:nonzero"
       id="g6938"
       clip-path="url(#clip22)"
       transform="matrix(1.25,0,0,1.25,-395.55249,270.10574)">
      <path
         id="path6940"
         d="m 232.50781,395.46875 187,0 0,-349.582031 -187,0 z m 0,0"
         style="fill:#ffffff;fill-opacity:1;fill-rule:nonzero;stroke:none" />
    </g>
    <g
       style="clip-rule:nonzero"
       id="g6942"
       clip-path="url(#clip23)"
       transform="matrix(1.25,0,0,1.25,-395.55249,270.10574)">
      <path
         id="path6944"
         d="m 232.50781,344.03125 187.00391,0"
         style="fill:none;stroke:#fafafa;stroke-width:1.06697798;stroke-linecap:butt;stroke-linejoin:round;stroke-miterlimit:10;stroke-opacity:1" />
    </g>
    <g
       style="clip-rule:nonzero"
       id="g6946"
       clip-path="url(#clip24)"
       transform="matrix(1.25,0,0,1.25,-395.55249,270.10574)">
      <path
         id="path6948"
         d="m 232.50781,272.9375 187.00391,0"
         style="fill:none;stroke:#fafafa;stroke-width:1.06697798;stroke-linecap:butt;stroke-linejoin:round;stroke-miterlimit:10;stroke-opacity:1" />
    </g>
    <g
       style="clip-rule:nonzero"
       id="g6950"
       clip-path="url(#clip25)"
       transform="matrix(1.25,0,0,1.25,-395.55249,270.10574)">
      <path
         id="path6952"
         d="m 232.50781,201.84766 187.00391,0"
         style="fill:none;stroke:#fafafa;stroke-width:1.06697798;stroke-linecap:butt;stroke-linejoin:round;stroke-miterlimit:10;stroke-opacity:1" />
    </g>
    <g
       style="clip-rule:nonzero"
       id="g6954"
       clip-path="url(#clip26)"
       transform="matrix(1.25,0,0,1.25,-395.55249,270.10574)">
      <path
         id="path6956"
         d="m 232.50781,130.75391 187.00391,0"
         style="fill:none;stroke:#fafafa;stroke-width:1.06697798;stroke-linecap:butt;stroke-linejoin:round;stroke-miterlimit:10;stroke-opacity:1" />
    </g>
    <g
       style="clip-rule:nonzero"
       id="g6958"
       clip-path="url(#clip27)"
       transform="matrix(1.25,0,0,1.25,-395.55249,270.10574)">
      <path
         id="path6960"
         d="m 232.50781,59.660156 187.00391,0"
         style="fill:none;stroke:#fafafa;stroke-width:1.06697798;stroke-linecap:butt;stroke-linejoin:round;stroke-miterlimit:10;stroke-opacity:1" />
    </g>
    <g
       style="clip-rule:nonzero"
       id="g6962"
       clip-path="url(#clip28)"
       transform="matrix(1.25,0,0,1.25,-395.55249,270.10574)">
      <path
         id="path6964"
         d="m 262.25781,395.46875 0,-349.582031"
         style="fill:none;stroke:#fafafa;stroke-width:1.06697798;stroke-linecap:butt;stroke-linejoin:round;stroke-miterlimit:10;stroke-opacity:1" />
    </g>
    <g
       style="clip-rule:nonzero"
       id="g6966"
       clip-path="url(#clip29)"
       transform="matrix(1.25,0,0,1.25,-395.55249,270.10574)">
      <path
         id="path6968"
         d="m 304.76172,395.46875 0,-349.582031"
         style="fill:none;stroke:#fafafa;stroke-width:1.06697798;stroke-linecap:butt;stroke-linejoin:round;stroke-miterlimit:10;stroke-opacity:1" />
    </g>
    <g
       style="clip-rule:nonzero"
       id="g6970"
       clip-path="url(#clip30)"
       transform="matrix(1.25,0,0,1.25,-395.55249,270.10574)">
      <path
         id="path6972"
         d="m 347.26172,395.46875 0,-349.582031"
         style="fill:none;stroke:#fafafa;stroke-width:1.06697798;stroke-linecap:butt;stroke-linejoin:round;stroke-miterlimit:10;stroke-opacity:1" />
    </g>
    <g
       style="clip-rule:nonzero"
       id="g6974"
       clip-path="url(#clip31)"
       transform="matrix(1.25,0,0,1.25,-395.55249,270.10574)">
      <path
         id="path6976"
         d="m 389.76172,395.46875 0,-349.582031"
         style="fill:none;stroke:#fafafa;stroke-width:1.06697798;stroke-linecap:butt;stroke-linejoin:round;stroke-miterlimit:10;stroke-opacity:1" />
    </g>
    <g
       style="clip-rule:nonzero"
       id="g6978"
       clip-path="url(#clip32)"
       transform="matrix(1.25,0,0,1.25,-395.55249,270.10574)">
      <path
         id="path6980"
         d="m 232.50781,379.57812 187.00391,0"
         style="fill:none;stroke:#e3e3e3;stroke-width:0.42679101;stroke-linecap:butt;stroke-linejoin:round;stroke-miterlimit:10;stroke-opacity:1" />
    </g>
    <g
       style="clip-rule:nonzero"
       id="g6982"
       clip-path="url(#clip33)"
       transform="matrix(1.25,0,0,1.25,-395.55249,270.10574)">
      <path
         id="path6984"
         d="m 232.50781,308.48437 187.00391,0"
         style="fill:none;stroke:#e3e3e3;stroke-width:0.42679101;stroke-linecap:butt;stroke-linejoin:round;stroke-miterlimit:10;stroke-opacity:1" />
    </g>
    <g
       style="clip-rule:nonzero"
       id="g6986"
       clip-path="url(#clip34)"
       transform="matrix(1.25,0,0,1.25,-395.55249,270.10574)">
      <path
         id="path6988"
         d="m 232.50781,237.39062 187.00391,0"
         style="fill:none;stroke:#e3e3e3;stroke-width:0.42679101;stroke-linecap:butt;stroke-linejoin:round;stroke-miterlimit:10;stroke-opacity:1" />
    </g>
    <g
       style="clip-rule:nonzero"
       id="g6990"
       clip-path="url(#clip35)"
       transform="matrix(1.25,0,0,1.25,-395.55249,270.10574)">
      <path
         id="path6992"
         d="m 232.50781,166.30078 187.00391,0"
         style="fill:none;stroke:#e3e3e3;stroke-width:0.42679101;stroke-linecap:butt;stroke-linejoin:round;stroke-miterlimit:10;stroke-opacity:1" />
    </g>
    <g
       style="clip-rule:nonzero"
       id="g6994"
       clip-path="url(#clip36)"
       transform="matrix(1.25,0,0,1.25,-395.55249,270.10574)">
      <path
         id="path6996"
         d="m 232.50781,95.207031 187.00391,0"
         style="fill:none;stroke:#e3e3e3;stroke-width:0.42679101;stroke-linecap:butt;stroke-linejoin:round;stroke-miterlimit:10;stroke-opacity:1" />
    </g>
    <g
       style="clip-rule:nonzero"
       id="g6998"
       clip-path="url(#clip37)"
       transform="matrix(1.25,0,0,1.25,-395.55249,270.10574)">
      <path
         id="path7000"
         d="m 241.00781,395.46875 0,-349.582031"
         style="fill:none;stroke:#e3e3e3;stroke-width:0.42679101;stroke-linecap:butt;stroke-linejoin:round;stroke-miterlimit:10;stroke-opacity:1" />
    </g>
    <g
       style="clip-rule:nonzero"
       id="g7002"
       clip-path="url(#clip38)"
       transform="matrix(1.25,0,0,1.25,-395.55249,270.10574)">
      <path
         id="path7004"
         d="m 283.50781,395.46875 0,-349.582031"
         style="fill:none;stroke:#e3e3e3;stroke-width:0.42679101;stroke-linecap:butt;stroke-linejoin:round;stroke-miterlimit:10;stroke-opacity:1" />
    </g>
    <g
       style="clip-rule:nonzero"
       id="g7006"
       clip-path="url(#clip39)"
       transform="matrix(1.25,0,0,1.25,-395.55249,270.10574)">
      <path
         id="path7008"
         d="m 326.01172,395.46875 0,-349.582031"
         style="fill:none;stroke:#e3e3e3;stroke-width:0.42679101;stroke-linecap:butt;stroke-linejoin:round;stroke-miterlimit:10;stroke-opacity:1" />
    </g>
    <g
       style="clip-rule:nonzero"
       id="g7010"
       clip-path="url(#clip40)"
       transform="matrix(1.25,0,0,1.25,-395.55249,270.10574)">
      <path
         id="path7012"
         d="m 368.51172,395.46875 0,-349.582031"
         style="fill:none;stroke:#e3e3e3;stroke-width:0.42679101;stroke-linecap:butt;stroke-linejoin:round;stroke-miterlimit:10;stroke-opacity:1" />
    </g>
    <g
       style="clip-rule:nonzero"
       id="g7014"
       clip-path="url(#clip41)"
       transform="matrix(1.25,0,0,1.25,-395.55249,270.10574)">
      <path
         id="path7016"
         d="m 411.01172,395.46875 0,-349.582031"
         style="fill:none;stroke:#e3e3e3;stroke-width:0.42679101;stroke-linecap:butt;stroke-linejoin:round;stroke-miterlimit:10;stroke-opacity:1" />
    </g>
    <path
       id="path7018"
       d="m -94.292729,740.10574 0.41992,-0.11713 0.41504,-0.0586 0.41504,0.005 0.41503,0.0635 0.41504,0.11237 0.41505,0.16113 0.41991,0.19043 0.41504,0.20995 0.41505,0.2295 0.83008,0.46875 0.41503,0.22462 0.41993,0.21483 0.41504,0.20508 0.41503,0.18066 0.41504,0.1709 0.41504,0.15138 0.41504,0.13183 0.41992,0.11713 0.41504,0.1025 0.41504,0.0879 0.41503,0.0684 0.41505,0.0537 0.41504,0.039 0.41991,0.0292 0.41505,0.01 0.41504,0 0.41504,-0.01 0.41504,-0.0195 0.41503,-0.0244 0.41993,-0.0292 0.41504,-0.0341 0.83007,-0.0586 0.41504,-0.0195 0.41504,-0.0146 0.41992,-0.01 0.41504,0 0.41504,0.01 0.41505,0.0195 0.83007,0.0586 0.41993,0.039 0.41503,0.039 0.41504,0.0439 0.83008,0.0781 0.41503,0.0292 0.41993,0.0244 0.41504,0.0195 0.41503,0.01 0.41504,0 0.41504,-0.01 0.41505,-0.0195 0.41991,-0.0293 0.41504,-0.039 0.41505,-0.0439 0.83007,-0.10737 0.41504,-0.0635 0.41993,-0.0635 0.41503,-0.0684 0.41504,-0.0635 0.83008,-0.11712 0.41503,-0.044 0.41993,-0.039 0.41504,-0.0341 0.41503,-0.0146 0.41504,-0.01 0.41505,0.005 0.41504,0.0146 0.41991,0.0293 0.41505,0.0341 0.41504,0.044 0.83007,0.0976 0.41504,0.0537 0.41993,0.0537 0.41503,0.0489 0.41504,0.0439 0.41504,0.039 0.41504,0.0342 0.41503,0.0293 0.41993,0.0195 0.41504,0.0146 0.83008,0.01 1.66504,0 0.83008,0.01 0.83007,0.0195 0.41993,0.0195 0.83007,0.039 0.83008,0.0489 0.41505,0.0292 0.41991,0.0292 0.41504,0.0244 0.41505,0.0292 0.41503,0.0341 0.41504,0.0292 0.41504,0.0341 0.41992,0.0342 0.41504,0.039 0.41504,0.0341 0.83007,0.0781 0.41504,0.0341 0.41993,0.0343 0.41503,0.0244 0.41504,0.0195 0.41504,0.005 0.41505,0 0.41504,-0.0146 0.41991,-0.0244 0.41505,-0.044 0.41504,-0.0489 0.41503,-0.0586 0.41504,-0.0684 0.41504,-0.0732 0.41992,-0.0781 0.41504,-0.0781 0.83008,-0.14648 0.41503,-0.0635 0.41504,-0.0586 0.41993,-0.0489 0.41503,-0.039 0.41504,-0.0341 0.41505,-0.0244 0.41504,-0.0195 0.41504,-0.0146 0.41992,-0.01 0.83008,-0.0195 0.41503,-0.005 0.83008,-0.0195 0.41992,-0.01 1.24512,-0.0293 0.83008,-0.01 0.41992,0 0.41503,0.005 0.41505,0.01 0.41504,0.0146 0.41504,0.0195 0.41504,0.0244 0.41992,0.0342 0.41504,0.0341 0.83007,0.0781 0.41504,0.044 0.41504,0.039 0.41992,0.039 0.41504,0.0292 0.41504,0.0195 0.41504,0.005 0.41505,-0.01 0.41503,-0.0244 0.41992,-0.0489 0.41505,-0.0684 0.41503,-0.0879 0.41504,-0.1025 0.41504,-0.12695 0.41504,-0.13672 0.41992,-0.14649 0.83008,-0.3125 0.41503,-0.16113 0.41504,-0.15137 0.41504,-0.14648 0.41992,-0.13183 0.41504,-0.12213 0.41504,-0.10737 0.41505,-0.0928 0.41504,-0.0781 0.41503,-0.0635 0.41993,-0.0489 0.41504,-0.0341 0.41503,-0.0244 0.41504,-0.01 0.41504,0 0.41504,0.01 0.41992,0.0146 0.41504,0.0292 0.41504,0.0343 0.41503,0.039 0.83009,0.0976 0.41991,0.0489 0.83009,0.0879 0.41504,0.039 0.4150403,0.0244 0.41503,0.0195 0.41993,0.01 0.41504,-0.005 0.41503,-0.0195 0.41504,-0.0341 0.41504,-0.0489 0.41504,-0.0684 0.41992,-0.0928 0.41504,-0.11713 0.41504,-0.14649 0.41503,-0.17577 0.41505,-0.21973 0.41504,-0.25878 0.41991,-0.3125 0.41505,-0.36622 0.41504,-0.42481 0.41504,-0.47362 0.41504,-0.52735 0.41503,-0.57618 0.41993,-0.61522 0.41504,-0.64454 0.83007005,-1.32813 0.41504,-0.6543 0.41504,-0.61522 0.41992,-0.56641 0.41503995,-0.48828 0.41504,-0.41016 0.41505,-0.30761 0.41503,-0.20508 0.41504,-0.0879 0.41993,0.0244 0.41503,0.13673 0.41504,0.24902 0.41504,0.33203 0.41504,0.4004 0.41503,0.44921 0.41993,0.47851 0.41504,0.49316 0.41503,0.4834 0.41504,0.45899 0.41504,0.4248 0.41505,0.38086 0.41991,0.32227 0.41504,0.26856 0.41505,0.20996 0.41504,0.15625 0.4150297,0.0976 0.41504,0.0489 0.41993,0 0.41503,-0.0489 0.41504,-0.0927 0.41504,-0.1416 0.41504,-0.18067 0.41503,-0.21483 0.41993,-0.23927 0.83007,-0.51757 0.41504,-0.25391 0.41505,-0.23438 0.41504,-0.20019 0.41991,-0.15137 0.41505,-0.083 0.41504,-0.0146 0.41504,0.0586 0.41503,0.12212 0.41504,0.18555 0.41993,0.23925 0.41503,0.26857 0.41504,0.29296 0.41504,0.28809 0.41504,0.26855 0.41503,0.2295 0.41993,0.1709 0.41504,0.1025 0.41503,0.0341 0.41505,-0.044 0.41504,-0.11712 0.41504,-0.18554 0.41992,-0.24415 0.41504,-0.29296 0.41504,-0.32715 0.41504,-0.34668 0.41503,-0.3418 0.41504,-0.33204 0.41993,-0.30761 0.41503,-0.26855 0.41504,-0.22461 0.41504,-0.1709 0.41504,-0.11713 0.41505,-0.0635 0.41991,0 0.41504,0.044 0.41505,0.0928 0.41503,0.12697 0.41504,0.15625 0.41504,0.1709 0.41992,0.18066 0.41504,0.18066 0.41504,0.17578 0.41504,0.15137 0.41503,0.12695 0.41504,0.0927 0.41993,0.0635 0.41503,0.0195 0.41504,-0.0195 0.41504,-0.0586 0.41505,-0.0976 0.41504,-0.13672 0.41991,-0.17578 0.41505,-0.21485 0.41504,-0.24901 0.41503,-0.27833 0.41504,-0.30273 0.41504,-0.32715 0.41992,-0.35157 0.41504,-0.37108 0.41504,-0.38575 0.41504,-0.40039 0.41503,-0.40528 0.41504,-0.41015 0.41993,-0.40038 0.41503,-0.39552 0.41504,-0.38086 0.41505,-0.35644 0.41504,-0.33203 0.41504,-0.29785 0.41992,-0.26855 0.41504,-0.2295 0.41504,-0.20019 0.41503,-0.16114 0.41504,-0.1416 0.41504,-0.12695 0.41992,-0.11712 0.41504,-0.11713 0.41504,-0.13184 0.41504,-0.15137 0.41503,-0.18554 0.41505,-0.2295 0.41992,-0.27831 0.41503,-0.33693 0.41505,-0.40038 0.41504,-0.46387 0.41504,-0.52735 0.41504,-0.58593 0.41992,-0.64942 0.41504,-0.69823 0.41504,-0.75195 0.41503,-0.79103 0.41504,-0.83007 0.41504,-0.84962 0.41992,-0.86913 0.83008,-1.75782 0.41504,-0.87402 0.41505,-0.86425 0.41503,-0.8545 0.41992,-0.83984 0.41505,-0.81544 0.41503,-0.80077 0.41504,-0.77638 0.41504,-0.75682 0.41504,-0.73243 0.41992,-0.71288 0.41504,-0.68849 0.41504,-0.66406 0.41503,-0.63477 0.41504,-0.60546 0.41504,-0.57129 0.41992,-0.53223 0.41504,-0.49317 0.41504,-0.44921 0.41505,-0.41016 0.41504,-0.36621 0.41991,-0.32227 0.41505,-0.27831 0.41504,-0.23926 0.41503,-0.19531 0.41504,-0.16602 0.41504,-0.1416 0.41992,-0.12696 0.41504,-0.13671 0.41504,-0.15625 0.41504,-0.2002 0.41503,-0.26855 0.41504,-0.36621 0.41993,-0.50293 0.41503,-0.67871 0.41504,-0.91309 0.41505,-1.17676 0.41504,-1.47949 0.41504,-1.82617 0.41992,-2.20703 0.41504,-2.63184 0.41504,-3.08106 0.41503,-3.56445 0.41504,-4.0625 0.41504,-4.61426 0.41992,-5.15625 0.41504,-5.66406 0.41504,-6.14745 0.41504,-6.59669 0.41503,-6.99706 0.41505,-7.33888 0.41992,-7.6123 0.41503,-7.79297 0.41505,-7.87598 0.41504,-7.8125 0.41504,-7.60742 0.41504,-7.26074 0.41992,-6.75781 0.41504,-6.09864 0.41504,-5.28808 0.41503,-4.32617 0.41504,-3.22754 0.41504,-2.01172 0.41992,-0.63477 0.41504,0.88868 0.41504,2.30956 0.41504,3.72071 0.41505,5.07324 0.41503,6.33789 0.41992,7.47559 0.41505,8.4668 0.41503,9.26757 0.41504,9.88281 0.41504,10.30274 0.41504,10.45899 0.41992,10.41015 0.41504,10.17579 0.41504,9.79491 0.41503,9.27735 0.41504,8.66699 0.41504,7.97851 0.41992,7.2461 0.41504,6.49414 0.41504,5.65918 0.41505,4.9414 0.41504,4.28223 0.41503,3.667 0.41993,3.11035 0.41504,2.62206 0.41503,2.1875 0.41504,1.82129 0.41504,1.49902 0.41504,1.22559 0.41992,0.99121 0.41504,0.81543 0.41504,0.67384 0.41503,0.55175 0.41504,0.4541 0.41505,0.37598 0.41991,0.3125 0.41504,0.25879 0.41505,0.21484 0.41504,0.18066 0.41504,0.15625 0.41503,0.13184 0.41993,0.11712 0.41504,0.10738 0.41503,0.0976 0.41504,0.0879 0.83008,0.15625 0.419919,0.0732 0.41504,0.0732 0.41504,0.0684 0.41503,0.0635 0.83009,0.13673 0.41991,0.0635 0.83009,0.13671 0.41504,0.0635 0.41504,0.0684 0.41503,0.0635 0.41993,0.0635 0.83007,0.11712 0.83008,0.10738 0.41504,0.044 0.41992,0.044 0.41504,0.039 0.41504,0.0341 0.41505,0.0292 0.41503,0.0244 0.41504,0.0146 0.41993,0.01 0.41503,0.005 0.41504,-0.005 0.41504,-0.01 0.41504,-0.0195 0.41503,-0.0293 0.41993,-0.0341 0.41504,-0.039 0.41503,-0.044 1.24513,-0.14648 0.41991,-0.044 0.41504,-0.039 0.41505,-0.0341 0.41504,-0.0195 0.41503,-0.01 0.41504,0 0.41993,0.0146 0.41503,0.0293 0,0.87401 -212.504879,0 z m 0,0"
       style="fill:#f8756b;fill-opacity:0.30196102;fill-rule:nonzero;stroke:#000000;stroke-width:1.33372247;stroke-linecap:round;stroke-linejoin:round;stroke-miterlimit:10;stroke-opacity:1" />
    <path
       id="path7020"
       d="m -94.292729,744.57839 98.9746103,0 0.41504,-0.01 0.41503,-0.0292 0.41993,-0.0684 0.41504,-0.15625 0.41503,-0.30762 0.41504,-0.54688 0.41504,-0.83496 0.41505,-1.08886 0.41991,-1.21094 0.41504,-1.07421 0.41505,-0.64454 0.41504,-0.0195 0.4150297,0.61522 0.41504,1.06934 0.41993,1.2207 0.41503,1.08399 0.41504,0.75684 0.41504,0.32715 0.41504,-0.11225 0.41503,-0.53224 0.41993,-0.91796 0.41504,-1.16212 0.41503,-1.17675 0.41504,-0.88867 0.41505,-0.33691 0.41504,0.3125 0.41991,0.86425 0.41505,1.167 0.41504,1.18163 0.41504,0.98633 0.41503,0.69825 0.41504,0.43456 0.41993,0.2295 0.41503,0.10738 0.41504,0.044 0.41504,0.0146 0.41504,0.005 9.98047,0 0.41504,-0.01 0.41992,-0.0195 0.41504,-0.0586 0.41504,-0.13672 0.41504,-0.29297 0.41503,-0.53711 0.41504,-0.86914 0.41993,-1.2207 0.41503,-1.50879 0.41504,-1.61132 0.41504,-1.48438 0.41505,-1.15235 0.41504,-0.65917 0.41991,-0.0927 0.41505,0.49805 0.41504,1.03515 0.41503,1.43555 0.41504,1.62597 0.41504,1.57226 0.41992,1.31348 0.41504,0.95704 0.41504,0.61035 0.41504,0.33691 0.41503,0.16114 0.41504,0.0732 0.41993,0.0244 0.41503,0.01 5.40528,0 0.41504,-0.01 0.41503,-0.0195 0.41505,-0.0489 0.41992,-0.122 0.41503,-0.25879 0.41505,-0.47364 0.41504,-0.7959 0.41504,-1.16211 0.41504,-1.52344 0.41992,-1.72851 0.41504,-1.71386 0.41504,-1.51368 0.41503,-1.18652 0.41504,-0.81543 0.41504,-0.44922 0.41992,-0.083 0.41504,0.33202 0.41504,0.77638 0.41504,1.2207 0.41505,1.55761 0.41503,1.68457 0.41992,1.49903 0.41505,0.99609 0.41503,0.23926 0.41504,-0.66406 0.41504,-1.54298 0.41504,-2.24121 0.41992,-2.61719 0.41504,-2.58789 0.41504,-2.16308 0.41503,-1.44532 0.41504,-0.53222 0.41504,0.30762 0.41992,0.97657 0.41504,1.37695 0.41504,1.44531 0.41505,1.12792 0.41504,0.42482 0.41991,-0.55665 0.41505,-1.56738 0.41504,-2.30957 0.41503,-2.5 0.41504,-2.0752 0.41504,-1.17188 0.41992,-0.1025 0.41504,0.78614 0.41504,1.26952 0.41504,1.2793 0.41503,0.87403 0.41504,0.20996 0.41993,-0.45899 0.41503,-0.86913 0.41504,-0.75195 0.41505,0 0.41504,1.24511 0.41504,2.44629 0.41992,3.19825 0.41504,3.29101 0.41504,2.70019 0.41503,1.60156 0.41504,0.2002 0.41504,-1.31836 0.41992,-2.77344 0.41504,-4.02831 0.41504,-5.01465 0.41504,-5.80567 0.41503,-6.61621 0.41505,-7.67579 0.41992,-9.05761 0.41503,-10.53222 0.41505,-11.68458 0.41504,-12.20215 0.41504,-12.26074 0.41504,-12.5293 0.41992,-13.86718 0.41504,-16.79199 0.41504,-21.11329 0.41503,-25.97167 0.41504,-29.93653 0.41504,-32.58301 0.41992,-33.8037 0.41504,-33.53028 0.41504,-31.29395 0.41504,-26.29882 0.41505,-18.12989 0.41503,-7.43652 0.41992,3.96485 0.41505,13.85742 0.41503,20.81054 0.41504,24.84864 0.41504,27.25097 0.41504,29.4336 0.41992,32.00195 0.41504,34.29199 0.41504,34.86816 0.41503,32.5293 0.41504,27.08496 0.41504,19.55078 0.41992,11.7334 0.41504,5.46875 0.41504,2.17774 0.41505,2.07031 0.41504,3.99902 0.41503,6.58692 0.41993,8.52051 0.41504,9.06737 0.41503,8.19825 0.41504,6.40137 0.41504,4.35547 0.41504,2.59276 0.41992,1.37697 0.41504,0.67382 0.41504,0.27833 0.41503,-0.039 0.41504,-0.37599 0.41505,-0.65429 0.41991,-0.65919 0.41504,-0.18066 0.41505,0.78614 0.41504,1.958 0.41504,2.8711 0.41503,3.14452 0.41993,2.66114 0.41504,1.65039 0.41503,0.56641 0.41504,-0.29297 0.41504,-0.79102 0.41504,-0.8789 0.419919,-0.57617 0.41504,0.0733 0.41504,0.88379 0.41503,1.5918 0.41505,1.94336 0.41504,1.79199 0.41991,1.23535 0.41505,0.51758 0.41504,-0.039 0.41504,-0.22461 0.41504,-0.01 0.41503,0.44921 0.41993,0.89844 0.41504,1.12305 0.41503,1.0205 0.41504,0.61524 0.41504,-0.01 0.41504,-0.7666 0.41992,-1.48926 0.41504,-2.00195 0.41504,-2.14355 0.41505,-1.78224 0.41503,-0.97168 0.41504,0.10738 0.41993,1.14746 0.41503,1.87988 0.41504,2.15821 0.41504,2.0166 0.41504,1.60644 0.41503,1.10352 0.41993,0.65918 0.41504,0.30273 0.41503,0.0195 0.41504,-0.24413 0.41504,-0.59083 0.41505,-1.06934 0.41991,-1.69432 0.41504,-2.44141 0.41505,-3.17872 0.41504,-3.71581 0.41503,-3.7793 0.41504,-3.10547 0.41993,-1.67969 0.41503,0.24415 0,21.6162 z m 0,0"
       style="fill:#00bdc2;fill-opacity:0.30196102;fill-rule:nonzero;stroke:#000000;stroke-width:1.33372247;stroke-linecap:round;stroke-linejoin:round;stroke-miterlimit:10;stroke-opacity:1" />
    <g
       style="clip-rule:nonzero"
       id="g7022"
       clip-path="url(#clip42)"
       transform="matrix(1.25,0,0,1.25,-395.55249,270.10574)">
      <path
         id="path7024"
         d="m 232.50781,395.46875 187,0 0,-349.582031 -187,0 z m 0,0"
         style="fill:none;stroke:#7d7d7d;stroke-width:1.06697798;stroke-linecap:round;stroke-linejoin:round;stroke-miterlimit:10;stroke-opacity:1" />
    </g>
    <g
       transform="matrix(1.2497672,0,0,2.2272153,-395.49904,225.11508)"
       style="clip-rule:nonzero"
       id="g7044"
       clip-path="url(#clip45)">
      <path
         id="path7046"
         d="m 39.53125,45.886719 187,0 0,-19.957031 -187,0 z m 0,0"
         style="fill:#cccccc;fill-opacity:1;fill-rule:nonzero;stroke:none" />
    </g>
    <g
       transform="matrix(1.2497672,0,0,2.2272153,-395.49904,225.11508)"
       style="clip-rule:nonzero"
       id="g7048"
       clip-path="url(#clip46)">
      <path
         id="path7050"
         d="m 39.53125,45.886719 187,0 0,-19.957031 -187,0 z m 0,0"
         style="fill:none;stroke:#7d7d7d;stroke-width:0.42679101;stroke-linecap:round;stroke-linejoin:round;stroke-miterlimit:10;stroke-opacity:1" />
    </g>
    <g
       transform="matrix(1.2497672,0,0,2.2272153,-395.49904,225.11508)"
       style="clip-rule:nonzero"
       id="g7076"
       clip-path="url(#clip49)">
      <path
         id="path7078"
         d="m 232.50781,45.886719 187,0 0,-19.957031 -187,0 z m 0,0"
         style="fill:#cccccc;fill-opacity:1;fill-rule:nonzero;stroke:none" />
    </g>
    <g
       transform="matrix(1.2497672,0,0,2.2272153,-395.49904,225.11508)"
       style="clip-rule:nonzero"
       id="g7080"
       clip-path="url(#clip50)">
      <path
         id="path7082"
         d="m 232.50781,45.886719 187,0 0,-19.957031 -187,0 z m 0,0"
         style="fill:none;stroke:#7d7d7d;stroke-width:0.42679101;stroke-linecap:round;stroke-linejoin:round;stroke-miterlimit:10;stroke-opacity:1" />
    </g>
    <g
       id="g7092"
       style="fill:#000000;fill-opacity:1"
       transform="matrix(1.25,0,0,1.25,-395.55249,270.10574)">
      <use
         height="100%"
         width="100%"
         id="use7094"
         y="382.59766"
         x="28.152344"
         xlink:href="#glyph0-9" />
    </g>
    <g
       id="g7096"
       style="fill:#000000;fill-opacity:1"
       transform="matrix(1.25,0,0,1.25,-395.55249,270.10574)">
      <use
         height="100%"
         width="100%"
         id="use7098"
         y="311.50391"
         x="28.152344"
         xlink:href="#glyph0-10" />
    </g>
    <g
       id="g7100"
       style="fill:#000000;fill-opacity:1"
       transform="matrix(1.25,0,0,1.25,-395.55249,270.10574)">
      <use
         height="100%"
         width="100%"
         id="use7102"
         y="240.41016"
         x="23.152344"
         xlink:href="#glyph0-11" />
      <use
         height="100%"
         width="100%"
         id="use7104"
         y="240.41016"
         x="28.486328"
         xlink:href="#glyph0-9" />
    </g>
    <g
       id="g7106"
       style="fill:#000000;fill-opacity:1"
       transform="matrix(1.25,0,0,1.25,-395.55249,270.10574)">
      <use
         height="100%"
         width="100%"
         id="use7108"
         y="169.32031"
         x="23.152344"
         xlink:href="#glyph0-11" />
      <use
         height="100%"
         width="100%"
         id="use7110"
         y="169.32031"
         x="28.486328"
         xlink:href="#glyph0-10" />
    </g>
    <g
       id="g7112"
       style="fill:#000000;fill-opacity:1"
       transform="matrix(1.25,0,0,1.25,-395.55249,270.10574)">
      <use
         height="100%"
         width="100%"
         id="use7114"
         y="98.226562"
         x="23.152344"
         xlink:href="#glyph0-12" />
      <use
         height="100%"
         width="100%"
         id="use7116"
         y="98.226562"
         x="28.486328"
         xlink:href="#glyph0-9" />
    </g>
    <path
       id="path7118"
       d="m -349.87378,744.57839 3.73535,0"
       style="fill:none;stroke:#000000;stroke-width:1.33372247;stroke-linecap:butt;stroke-linejoin:round;stroke-miterlimit:10;stroke-opacity:1" />
    <path
       id="path7120"
       d="m -349.87378,655.7112 3.73535,0"
       style="fill:none;stroke:#000000;stroke-width:1.33372247;stroke-linecap:butt;stroke-linejoin:round;stroke-miterlimit:10;stroke-opacity:1" />
    <path
       id="path7122"
       d="m -349.87378,566.84401 3.73535,0"
       style="fill:none;stroke:#000000;stroke-width:1.33372247;stroke-linecap:butt;stroke-linejoin:round;stroke-miterlimit:10;stroke-opacity:1" />
    <path
       id="path7124"
       d="m -349.87378,477.98171 3.73535,0"
       style="fill:none;stroke:#000000;stroke-width:1.33372247;stroke-linecap:butt;stroke-linejoin:round;stroke-miterlimit:10;stroke-opacity:1" />
    <path
       id="path7126"
       d="m -349.87378,389.11453 3.73535,0"
       style="fill:none;stroke:#000000;stroke-width:1.33372247;stroke-linecap:butt;stroke-linejoin:round;stroke-miterlimit:10;stroke-opacity:1" />
    <path
       id="path7128"
       d="m -335.51343,768.17702 0,-3.73535"
       style="fill:none;stroke:#000000;stroke-width:1.33372247;stroke-linecap:butt;stroke-linejoin:round;stroke-miterlimit:10;stroke-opacity:1" />
    <path
       id="path7130"
       d="m -282.38843,768.17702 0,-3.73535"
       style="fill:none;stroke:#000000;stroke-width:1.33372247;stroke-linecap:butt;stroke-linejoin:round;stroke-miterlimit:10;stroke-opacity:1" />
    <path
       id="path7132"
       d="m -229.26343,768.17702 0,-3.73535"
       style="fill:none;stroke:#000000;stroke-width:1.33372247;stroke-linecap:butt;stroke-linejoin:round;stroke-miterlimit:10;stroke-opacity:1" />
    <path
       id="path7134"
       d="m -176.13843,768.17702 0,-3.73535"
       style="fill:none;stroke:#000000;stroke-width:1.33372247;stroke-linecap:butt;stroke-linejoin:round;stroke-miterlimit:10;stroke-opacity:1" />
    <path
       id="path7136"
       d="m -123.01343,768.17702 0,-3.73535"
       style="fill:none;stroke:#000000;stroke-width:1.33372247;stroke-linecap:butt;stroke-linejoin:round;stroke-miterlimit:10;stroke-opacity:1" />
    <path
       id="path7188"
       d="m -94.292729,768.17702 0,-3.73535"
       style="fill:none;stroke:#000000;stroke-width:1.33372247;stroke-linecap:butt;stroke-linejoin:round;stroke-miterlimit:10;stroke-opacity:1" />
    <path
       id="path7190"
       d="m -41.167729,768.17702 0,-3.73535"
       style="fill:none;stroke:#000000;stroke-width:1.33372247;stroke-linecap:butt;stroke-linejoin:round;stroke-miterlimit:10;stroke-opacity:1" />
    <path
       id="path7192"
       d="m 11.962151,768.17702 0,-3.73535"
       style="fill:none;stroke:#000000;stroke-width:1.33372247;stroke-linecap:butt;stroke-linejoin:round;stroke-miterlimit:10;stroke-opacity:1" />
    <path
       id="path7194"
       d="m 65.087151,768.17702 0,-3.73535"
       style="fill:none;stroke:#000000;stroke-width:1.33372247;stroke-linecap:butt;stroke-linejoin:round;stroke-miterlimit:10;stroke-opacity:1" />
    <path
       id="path7196"
       d="m 118.21215,768.17702 0,-3.73535"
       style="fill:none;stroke:#000000;stroke-width:1.33372247;stroke-linecap:butt;stroke-linejoin:round;stroke-miterlimit:10;stroke-opacity:1" />
    <path
       id="path7306"
       d="m -262.86788,264.01176 29.73761,0 0,-29.73759 -29.73761,0 z m 0,0"
       style="fill:#ffffff;fill-opacity:1;fill-rule:nonzero;stroke:#cccccc;stroke-width:1.83605731;stroke-linecap:round;stroke-linejoin:round;stroke-miterlimit:10;stroke-opacity:1" />
    <path
       id="path7308"
       d="m -261.64448,262.79175 27.29755,0 0,-27.29757 -27.29755,0 z m 0,0"
       style="fill:#f8756b;fill-opacity:0.30196102;fill-rule:nonzero;stroke:#000000;stroke-width:1.83605731;stroke-linecap:round;stroke-linejoin:miter;stroke-miterlimit:10;stroke-opacity:1" />
    <path
       id="path7310"
       d="m -120.60591,264.01177 29.737611,0 0,-29.73761 -29.737611,0 z m 0,0"
       style="fill:#ffffff;fill-opacity:1;fill-rule:nonzero;stroke:#cccccc;stroke-width:1.83605731;stroke-linecap:round;stroke-linejoin:round;stroke-miterlimit:10;stroke-opacity:1" />
    <path
       id="path7312"
       d="m -119.38251,262.79175 27.297551,0 0,-27.29757 -27.297551,0 z m 0,0"
       style="fill:#00bdc2;fill-opacity:0.30196102;fill-rule:nonzero;stroke:#000000;stroke-width:1.83605731;stroke-linecap:round;stroke-linejoin:miter;stroke-miterlimit:10;stroke-opacity:1" />
    <text
       id="text9385"
       y="255.35025"
       x="-77.350067"
       style="font-style:normal;font-weight:normal;font-size:40px;line-height:125%;font-family:sans-serif;letter-spacing:0px;word-spacing:0px;fill:#000000;fill-opacity:1;stroke:none;stroke-width:1px;stroke-linecap:butt;stroke-linejoin:miter;stroke-opacity:1"
       xml:space="preserve"><tspan
         id="tspan9387"
         y="255.35025"
         x="-77.350067"><tspan
           id="tspan9389"
           style="font-size:22.5px"
           y="255.35025"
           x="-77.350067">Damaging</tspan></tspan></text>
    <text
       id="text9373"
       y="314.11639"
       x="-301.07251"
       style="font-style:normal;font-weight:normal;font-size:40px;line-height:125%;font-family:sans-serif;letter-spacing:0px;word-spacing:0px;fill:#000000;fill-opacity:1;stroke:none;stroke-width:1px;stroke-linecap:butt;stroke-linejoin:miter;stroke-opacity:1"
       xml:space="preserve"><tspan
         id="tspan9375"
         y="314.11639"
         x="-301.07251"><tspan
           id="tspan9377"
           style="font-size:25px"
           y="314.11639"
           x="-301.07251">Gradient B.</tspan></tspan></text>
    <text
       id="text9367"
       y="314.11639"
       x="-60.580265"
       style="font-style:normal;font-weight:normal;font-size:40px;line-height:125%;font-family:sans-serif;letter-spacing:0px;word-spacing:0px;fill:#000000;fill-opacity:1;stroke:none;stroke-width:1px;stroke-linecap:butt;stroke-linejoin:miter;stroke-opacity:1"
       xml:space="preserve"><tspan
         id="tspan9369"
         y="314.11639"
         x="-60.580265"><tspan
           id="tspan9371"
           style="font-size:25px"
           y="314.11639"
           x="-60.580265">Linear SVM</tspan></tspan></text>
    <text
       id="text9361"
       y="825.64807"
       x="-258.63208"
       style="font-style:normal;font-weight:normal;font-size:40px;line-height:125%;font-family:sans-serif;letter-spacing:0px;word-spacing:0px;fill:#000000;fill-opacity:1;stroke:none;stroke-width:1px;stroke-linecap:butt;stroke-linejoin:miter;stroke-opacity:1"
       xml:space="preserve"><tspan
         id="tspan9363"
         y="825.64807"
         x="-258.63208"><tspan
           id="tspan9365"
           style="font-size:27.5px"
           y="825.64807"
           x="-258.63208">Damaging probability</tspan></tspan></text>
    <text
       id="text9391"
       y="257.53104"
       x="-221.83588"
       style="font-style:normal;font-weight:normal;font-size:40px;line-height:125%;font-family:sans-serif;letter-spacing:0px;word-spacing:0px;fill:#000000;fill-opacity:1;stroke:none;stroke-width:1px;stroke-linecap:butt;stroke-linejoin:miter;stroke-opacity:1"
       xml:space="preserve"><tspan
         id="tspan9393"
         y="257.53104"
         x="-221.83588"><tspan
           id="tspan9395"
           style="font-size:22.5px"
           y="257.53104"
           x="-221.83588">Good</tspan></tspan></text>
    <text
       transform="matrix(0,-1,1,0,0,0)"
       id="text9379"
       y="-363.177"
       x="-598.35059"
       style="font-style:normal;font-weight:normal;font-size:40px;line-height:125%;font-family:sans-serif;letter-spacing:0px;word-spacing:0px;fill:#000000;fill-opacity:1;stroke:none;stroke-width:1px;stroke-linecap:butt;stroke-linejoin:miter;stroke-opacity:1"
       xml:space="preserve"
       sodipodi:linespacing="125%"><tspan
         id="tspan9381"
         y="-363.177"
         x="-598.35059"><tspan
           id="tspan9383"
           style="font-size:27.5px"
           y="-363.177"
           x="-598.35059">Density</tspan></tspan></text>
    <text
       id="text9309"
       y="786.21527"
       x="-340.85571"
       style="font-style:normal;font-weight:normal;font-size:40px;line-height:125%;font-family:sans-serif;letter-spacing:0px;word-spacing:0px;fill:#000000;fill-opacity:1;stroke:none;stroke-width:1px;stroke-linecap:butt;stroke-linejoin:miter;stroke-opacity:1"
       xml:space="preserve"><tspan
         id="tspan9311"
         y="786.21527"
         x="-340.85571"><tspan
           id="tspan9313"
           style="font-size:17.5px"
           y="786.21527"
           x="-340.85571">0</tspan></tspan></text>
    <text
       id="text9315"
       y="786.21527"
       x="-244.39267"
       style="font-style:normal;font-weight:normal;font-size:40px;line-height:125%;font-family:sans-serif;letter-spacing:0px;word-spacing:0px;fill:#000000;fill-opacity:1;stroke:none;stroke-width:1px;stroke-linecap:butt;stroke-linejoin:miter;stroke-opacity:1"
       xml:space="preserve"><tspan
         id="tspan9317"
         y="786.21527"
         x="-244.39267"><tspan
           id="tspan9319"
           style="font-size:17.5px"
           y="786.21527"
           x="-244.39267">0.5</tspan><tspan
           id="tspan9321"
           style="font-size:17.5px"
           y="786.21527"
           x="-216.53622"
           dx="0" /></tspan></text>
    <text
       id="text9323"
       y="786.22382"
       x="-129.27185"
       style="font-style:normal;font-weight:normal;font-size:40px;line-height:125%;font-family:sans-serif;letter-spacing:0px;word-spacing:0px;fill:#000000;fill-opacity:1;stroke:none;stroke-width:1px;stroke-linecap:butt;stroke-linejoin:miter;stroke-opacity:1"
       xml:space="preserve"><tspan
         id="tspan9325"
         y="786.22382"
         x="-129.27185"><tspan
           id="tspan9327"
           style="font-size:17.5px"
           y="786.22382"
           x="-129.27185">1</tspan><tspan
           id="tspan9329"
           style="font-size:17.5px"
           y="786.22382"
           x="-118.12927"
           dx="0" /></tspan><tspan
         id="tspan9331"
         y="786.22382"
         x="-129.27185"><tspan
           id="tspan9333"
           style="font-size:17.5px"
           y="808.09882"
           x="-129.27185" /></tspan></text>
    <text
       id="text9335"
       y="786.21527"
       x="-99.56427"
       style="font-style:normal;font-weight:normal;font-size:40px;line-height:125%;font-family:sans-serif;letter-spacing:0px;word-spacing:0px;fill:#000000;fill-opacity:1;stroke:none;stroke-width:1px;stroke-linecap:butt;stroke-linejoin:miter;stroke-opacity:1"
       xml:space="preserve"><tspan
         id="tspan9337"
         y="786.21527"
         x="-99.56427"><tspan
           id="tspan9339"
           style="font-size:17.5px"
           y="786.21527"
           x="-99.56427">0</tspan></tspan></text>
    <text
       id="text9353"
       y="786.21527"
       x="-3.1018696"
       style="font-style:normal;font-weight:normal;font-size:40px;line-height:125%;font-family:sans-serif;letter-spacing:0px;word-spacing:0px;fill:#000000;fill-opacity:1;stroke:none;stroke-width:1px;stroke-linecap:butt;stroke-linejoin:miter;stroke-opacity:1"
       xml:space="preserve"><tspan
         id="tspan9355"
         y="786.21527"
         x="-3.1018696"><tspan
           id="tspan9357"
           style="font-size:17.5px"
           y="786.21527"
           x="-3.1018696">0.5</tspan><tspan
           id="tspan9359"
           style="font-size:17.5px"
           y="786.21527"
           x="24.754576"
           dx="0" /></tspan></text>
    <text
       id="text9341"
       y="786.22382"
       x="112.0202"
       style="font-style:normal;font-weight:normal;font-size:40px;line-height:125%;font-family:sans-serif;letter-spacing:0px;word-spacing:0px;fill:#000000;fill-opacity:1;stroke:none;stroke-width:1px;stroke-linecap:butt;stroke-linejoin:miter;stroke-opacity:1"
       xml:space="preserve"><tspan
         id="tspan9343"
         y="786.22382"
         x="112.0202"><tspan
           id="tspan9345"
           style="font-size:17.5px"
           y="786.22382"
           x="112.0202">1</tspan><tspan
           id="tspan9347"
           style="font-size:17.5px"
           y="786.22382"
           x="123.16278"
           dx="0" /></tspan><tspan
         id="tspan9349"
         y="786.22382"
         x="112.0202"><tspan
           id="tspan9351"
           style="font-size:17.5px"
           y="808.09882"
           x="112.0202" /></tspan></text>
  </g>
</svg>
